# xmcd CD database file
#
# Track frame offsets:
#	150
#	32798
#	54431
#	76117
#	100897
#	129971
#	162764
#	190921
#	212788
#	235640
#	257411
#	284893
#	306880
#	321857
#
# Disc length: 4609 seconds
#
# Revision: 0
# Processed by: cddbd v1.5.2PL0 Copyright (c) Steve Scherf et al.
# Submitted via: CDex 1.75
#
DISCID=ba11ff0e
DTITLE=Art Tatum and Ben Webster - Complete legendary session
DYEAR=1956
DGENRE=Jazz
TTITLE0=All The Things You Are
TTITLE1=Gone With The Wind
TTITLE2=Have You Met Miss Jones? 
TTITLE3=Night And Day
TTITLE4=Where Or When
TTITLE5=My Ideal
TTITLE6=My One And Only Love
TTITLE7=Gone With The Wind [Alternative Take 1] 
TTITLE8=Have You Met Miss Jones? [Alternative Take] 
TTITLE9=Gone With The Wind [Alternative Take 2] 
TTITLE10=All The Things You Are
TTITLE11=Have You Met Miss Jones? - Art Tatum unaccompanied piano
TTITLE12=Night And Day - Art Tatum unaccompanied piano
TTITLE13=Where Or When - Art Tatum unaccompanied piano
EXTD=YEAR: 1956
EXTT0=
EXTT1=
EXTT2=
EXTT3=
EXTT4=
EXTT5=
EXTT6=
EXTT7=
EXTT8=
EXTT9=
EXTT10=
EXTT11=
EXTT12=
EXTT13=
PLAYORDER=
